<svg xmlns="http://www.w3.org/2000/svg" xmlns:xlink="http://www.w3.org/1999/xlink" width="2000" zoomAndPan="magnify" viewBox="0 0 1500 1499.999933" height="2000" preserveAspectRatio="xMidYMid meet" version="1.0"><defs><g/></defs><g fill="#e84b13" fill-opacity="1"><g transform="translate(244.659505, 854.192594)"><g><path d="M 30.945312 0 L 93.828125 0 C 96.074219 0 98.070312 -1.996094 98.070312 -4.242188 L 98.070312 -19.464844 C 98.070312 -21.710938 96.074219 -23.707031 93.828125 -23.707031 L 30.945312 -23.707031 C 28.699219 -23.707031 26.703125 -25.703125 26.703125 -27.949219 L 26.703125 -43.171875 C 26.703125 -45.417969 28.699219 -47.414062 30.945312 -47.414062 L 93.828125 -47.414062 C 96.074219 -47.414062 98.070312 -49.410156 98.070312 -51.65625 L 98.070312 -90.835938 C 98.070312 -93.082031 96.074219 -95.078125 93.828125 -95.078125 L 78.609375 -95.078125 C 76.363281 -95.078125 74.363281 -97.074219 74.363281 -99.320312 L 74.363281 -114.542969 C 74.363281 -116.789062 72.367188 -118.785156 70.121094 -118.785156 L 30.945312 -118.785156 C 28.699219 -118.785156 26.703125 -116.789062 26.703125 -114.542969 L 26.703125 -99.320312 C 26.703125 -97.074219 24.707031 -95.078125 22.460938 -95.078125 L 7.238281 -95.078125 C 4.992188 -95.078125 2.996094 -93.082031 2.996094 -90.835938 L 2.996094 -27.949219 C 2.996094 -25.703125 4.992188 -23.707031 7.238281 -23.707031 L 22.460938 -23.707031 C 24.707031 -23.707031 26.703125 -21.710938 26.703125 -19.464844 L 26.703125 -4.242188 C 26.703125 -1.996094 28.699219 0 30.945312 0 Z M 26.703125 -75.613281 L 26.703125 -90.835938 C 26.703125 -93.082031 28.699219 -95.078125 30.945312 -95.078125 L 70.121094 -95.078125 C 72.367188 -95.078125 74.363281 -93.082031 74.363281 -90.835938 L 74.363281 -75.613281 C 74.363281 -73.367188 72.367188 -71.371094 70.121094 -71.371094 L 30.945312 -71.371094 C 28.699219 -71.371094 26.703125 -73.367188 26.703125 -75.613281 Z M 26.703125 -75.613281 "/></g></g></g><g fill="#e84b13" fill-opacity="1"><g transform="translate(345.726048, 854.192594)"><g><path d="M 98.070312 -4.242188 L 98.070312 -162.207031 C 98.070312 -164.453125 96.074219 -166.449219 93.828125 -166.449219 L 78.609375 -166.449219 C 76.363281 -166.449219 74.363281 -164.453125 74.363281 -162.207031 L 74.363281 -123.027344 C 74.363281 -120.78125 72.367188 -118.785156 70.121094 -118.785156 L 30.945312 -118.785156 C 28.699219 -118.785156 26.703125 -116.789062 26.703125 -114.542969 L 26.703125 -99.320312 C 26.703125 -97.074219 24.707031 -95.078125 22.460938 -95.078125 L 7.238281 -95.078125 C 4.992188 -95.078125 2.996094 -93.082031 2.996094 -90.835938 L 2.996094 -27.949219 C 2.996094 -25.703125 4.992188 -23.707031 7.238281 -23.707031 L 22.460938 -23.707031 C 24.707031 -23.707031 26.703125 -21.710938 26.703125 -19.464844 L 26.703125 -4.242188 C 26.703125 -1.996094 28.699219 0 30.945312 0 L 93.828125 0 C 96.074219 0 98.070312 -1.996094 98.070312 -4.242188 Z M 74.363281 -90.835938 L 74.363281 -27.949219 C 74.363281 -25.703125 72.367188 -23.707031 70.121094 -23.707031 L 30.945312 -23.707031 C 28.699219 -23.707031 26.703125 -25.703125 26.703125 -27.949219 L 26.703125 -90.835938 C 26.703125 -93.082031 28.699219 -95.078125 30.945312 -95.078125 L 70.121094 -95.078125 C 72.367188 -95.078125 74.363281 -93.082031 74.363281 -90.835938 Z M 74.363281 -90.835938 "/></g></g></g><g fill="#e84b13" fill-opacity="1"><g transform="translate(446.792591, 854.192594)"><g><path d="M 30.945312 0 L 93.828125 0 C 96.074219 0 98.070312 -1.996094 98.070312 -4.242188 L 98.070312 -114.542969 C 98.070312 -116.789062 96.074219 -118.785156 93.828125 -118.785156 L 78.609375 -118.785156 C 76.363281 -118.785156 74.363281 -116.789062 74.363281 -114.542969 L 74.363281 -27.949219 C 74.363281 -25.703125 72.367188 -23.707031 70.121094 -23.707031 L 30.945312 -23.707031 C 28.699219 -23.707031 26.703125 -25.703125 26.703125 -27.949219 L 26.703125 -114.542969 C 26.703125 -116.789062 24.707031 -118.785156 22.460938 -118.785156 L 7.238281 -118.785156 C 4.992188 -118.785156 2.996094 -116.789062 2.996094 -114.542969 L 2.996094 -27.949219 C 2.996094 -25.703125 4.992188 -23.707031 7.238281 -23.707031 L 22.460938 -23.707031 C 24.707031 -23.707031 26.703125 -21.710938 26.703125 -19.464844 L 26.703125 -4.242188 C 26.703125 -1.996094 28.699219 0 30.945312 0 Z M 30.945312 0 "/></g></g></g><g fill="#e84b13" fill-opacity="1"><g transform="translate(547.859133, 854.192594)"><g><path d="M 30.945312 0 L 93.828125 0 C 96.074219 0 98.070312 -1.996094 98.070312 -4.242188 L 98.070312 -19.464844 C 98.070312 -21.710938 96.074219 -23.707031 93.828125 -23.707031 L 30.945312 -23.707031 C 28.699219 -23.707031 26.703125 -25.703125 26.703125 -27.949219 L 26.703125 -90.835938 C 26.703125 -93.082031 28.699219 -95.078125 30.945312 -95.078125 L 93.828125 -95.078125 C 96.074219 -95.078125 98.070312 -97.074219 98.070312 -99.320312 L 98.070312 -114.542969 C 98.070312 -116.789062 96.074219 -118.785156 93.828125 -118.785156 L 30.945312 -118.785156 C 28.699219 -118.785156 26.703125 -116.789062 26.703125 -114.542969 L 26.703125 -99.320312 C 26.703125 -97.074219 24.707031 -95.078125 22.460938 -95.078125 L 7.238281 -95.078125 C 4.992188 -95.078125 2.996094 -93.082031 2.996094 -90.835938 L 2.996094 -27.949219 C 2.996094 -25.703125 4.992188 -23.707031 7.238281 -23.707031 L 22.460938 -23.707031 C 24.707031 -23.707031 26.703125 -21.710938 26.703125 -19.464844 L 26.703125 -4.242188 C 26.703125 -1.996094 28.699219 0 30.945312 0 Z M 30.945312 0 "/></g></g></g><g fill="#e84b13" fill-opacity="1"><g transform="translate(648.925676, 854.192594)"><g><path d="M 7.238281 -23.707031 L 22.460938 -23.707031 C 24.707031 -23.707031 26.703125 -21.710938 26.703125 -19.464844 L 26.703125 -4.242188 C 26.703125 -1.996094 28.699219 0 30.945312 0 L 70.121094 0 C 72.367188 0 74.363281 -1.996094 74.363281 -4.242188 L 74.363281 -19.464844 C 74.363281 -21.710938 76.363281 -23.707031 78.609375 -23.707031 L 93.828125 -23.707031 C 96.074219 -23.707031 98.070312 -25.703125 98.070312 -27.949219 L 98.070312 -90.835938 C 98.070312 -93.082031 96.074219 -95.078125 93.828125 -95.078125 L 78.609375 -95.078125 C 76.363281 -95.078125 74.363281 -97.074219 74.363281 -99.320312 L 74.363281 -114.542969 C 74.363281 -116.789062 72.367188 -118.785156 70.121094 -118.785156 L 30.945312 -118.785156 C 28.699219 -118.785156 26.703125 -116.789062 26.703125 -114.542969 L 26.703125 -99.320312 C 26.703125 -97.074219 24.707031 -95.078125 22.460938 -95.078125 L 7.238281 -95.078125 C 4.992188 -95.078125 2.996094 -93.082031 2.996094 -90.835938 L 2.996094 -27.949219 C 2.996094 -25.703125 4.992188 -23.707031 7.238281 -23.707031 Z M 26.703125 -27.949219 L 26.703125 -90.835938 C 26.703125 -93.082031 28.699219 -95.078125 30.945312 -95.078125 L 70.121094 -95.078125 C 72.367188 -95.078125 74.363281 -93.082031 74.363281 -90.835938 L 74.363281 -27.949219 C 74.363281 -25.703125 72.367188 -23.707031 70.121094 -23.707031 L 30.945312 -23.707031 C 28.699219 -23.707031 26.703125 -25.703125 26.703125 -27.949219 Z M 26.703125 -27.949219 "/></g></g></g><g fill="#e84b13" fill-opacity="1"><g transform="translate(749.992196, 854.192594)"><g><path d="M 7.238281 0 L 22.460938 0 C 24.707031 0 26.703125 -1.996094 26.703125 -4.242188 L 26.703125 -90.835938 C 26.703125 -93.082031 28.699219 -95.078125 30.945312 -95.078125 L 70.121094 -95.078125 C 72.367188 -95.078125 74.363281 -93.082031 74.363281 -90.835938 L 74.363281 -4.242188 C 74.363281 -1.996094 76.363281 0 78.609375 0 L 93.828125 0 C 96.074219 0 98.070312 -1.996094 98.070312 -4.242188 L 98.070312 -90.835938 C 98.070312 -93.082031 96.074219 -95.078125 93.828125 -95.078125 L 78.609375 -95.078125 C 76.363281 -95.078125 74.363281 -97.074219 74.363281 -99.320312 L 74.363281 -114.542969 C 74.363281 -116.789062 72.367188 -118.785156 70.121094 -118.785156 L 7.238281 -118.785156 C 4.992188 -118.785156 2.996094 -116.789062 2.996094 -114.542969 L 2.996094 -4.242188 C 2.996094 -1.996094 4.992188 0 7.238281 0 Z M 7.238281 0 "/></g></g></g><g fill="#e84b13" fill-opacity="1"><g transform="translate(851.058761, 854.192594)"><g><path d="M 30.945312 0 L 93.828125 0 C 96.074219 0 98.070312 -1.996094 98.070312 -4.242188 L 98.070312 -19.464844 C 98.070312 -21.710938 96.074219 -23.707031 93.828125 -23.707031 L 30.945312 -23.707031 C 28.699219 -23.707031 26.703125 -25.703125 26.703125 -27.949219 L 26.703125 -43.171875 C 26.703125 -45.417969 28.699219 -47.414062 30.945312 -47.414062 L 93.828125 -47.414062 C 96.074219 -47.414062 98.070312 -49.410156 98.070312 -51.65625 L 98.070312 -90.835938 C 98.070312 -93.082031 96.074219 -95.078125 93.828125 -95.078125 L 78.609375 -95.078125 C 76.363281 -95.078125 74.363281 -97.074219 74.363281 -99.320312 L 74.363281 -114.542969 C 74.363281 -116.789062 72.367188 -118.785156 70.121094 -118.785156 L 30.945312 -118.785156 C 28.699219 -118.785156 26.703125 -116.789062 26.703125 -114.542969 L 26.703125 -99.320312 C 26.703125 -97.074219 24.707031 -95.078125 22.460938 -95.078125 L 7.238281 -95.078125 C 4.992188 -95.078125 2.996094 -93.082031 2.996094 -90.835938 L 2.996094 -27.949219 C 2.996094 -25.703125 4.992188 -23.707031 7.238281 -23.707031 L 22.460938 -23.707031 C 24.707031 -23.707031 26.703125 -21.710938 26.703125 -19.464844 L 26.703125 -4.242188 C 26.703125 -1.996094 28.699219 0 30.945312 0 Z M 26.703125 -75.613281 L 26.703125 -90.835938 C 26.703125 -93.082031 28.699219 -95.078125 30.945312 -95.078125 L 70.121094 -95.078125 C 72.367188 -95.078125 74.363281 -93.082031 74.363281 -90.835938 L 74.363281 -75.613281 C 74.363281 -73.367188 72.367188 -71.371094 70.121094 -71.371094 L 30.945312 -71.371094 C 28.699219 -71.371094 26.703125 -73.367188 26.703125 -75.613281 Z M 26.703125 -75.613281 "/></g></g></g><g fill="#e84b13" fill-opacity="1"><g transform="translate(952.125326, 854.192594)"><g><path d="M 30.945312 0 L 93.828125 0 C 96.074219 0 98.070312 -1.996094 98.070312 -4.242188 L 98.070312 -19.464844 C 98.070312 -21.710938 96.074219 -23.707031 93.828125 -23.707031 L 30.945312 -23.707031 C 28.699219 -23.707031 26.703125 -25.703125 26.703125 -27.949219 L 26.703125 -90.835938 C 26.703125 -93.082031 28.699219 -95.078125 30.945312 -95.078125 L 93.828125 -95.078125 C 96.074219 -95.078125 98.070312 -97.074219 98.070312 -99.320312 L 98.070312 -114.542969 C 98.070312 -116.789062 96.074219 -118.785156 93.828125 -118.785156 L 30.945312 -118.785156 C 28.699219 -118.785156 26.703125 -116.789062 26.703125 -114.542969 L 26.703125 -99.320312 C 26.703125 -97.074219 24.707031 -95.078125 22.460938 -95.078125 L 7.238281 -95.078125 C 4.992188 -95.078125 2.996094 -93.082031 2.996094 -90.835938 L 2.996094 -27.949219 C 2.996094 -25.703125 4.992188 -23.707031 7.238281 -23.707031 L 22.460938 -23.707031 C 24.707031 -23.707031 26.703125 -21.710938 26.703125 -19.464844 L 26.703125 -4.242188 C 26.703125 -1.996094 28.699219 0 30.945312 0 Z M 30.945312 0 "/></g></g></g><g fill="#e84b13" fill-opacity="1"><g transform="translate(1053.191846, 854.192594)"><g><path d="M 54.652344 0 L 93.828125 0 C 96.074219 0 98.070312 -1.996094 98.070312 -4.242188 L 98.070312 -19.464844 C 98.070312 -21.710938 96.074219 -23.707031 93.828125 -23.707031 L 54.652344 -23.707031 C 52.40625 -23.707031 50.410156 -25.703125 50.410156 -27.949219 L 50.410156 -90.835938 C 50.410156 -93.082031 52.40625 -95.078125 54.652344 -95.078125 L 93.828125 -95.078125 C 96.074219 -95.078125 98.070312 -97.074219 98.070312 -99.320312 L 98.070312 -114.542969 C 98.070312 -116.789062 96.074219 -118.785156 93.828125 -118.785156 L 54.652344 -118.785156 C 52.40625 -118.785156 50.410156 -120.78125 50.410156 -123.027344 L 50.410156 -162.207031 C 50.410156 -164.453125 48.414062 -166.449219 46.167969 -166.449219 L 30.945312 -166.449219 C 28.699219 -166.449219 26.703125 -164.453125 26.703125 -162.207031 L 26.703125 -123.027344 C 26.703125 -120.78125 24.707031 -118.785156 22.460938 -118.785156 L 7.238281 -118.785156 C 4.992188 -118.785156 2.996094 -116.789062 2.996094 -114.542969 L 2.996094 -99.320312 C 2.996094 -97.074219 4.992188 -95.078125 7.238281 -95.078125 L 22.460938 -95.078125 C 24.707031 -95.078125 26.703125 -93.082031 26.703125 -90.835938 L 26.703125 -27.949219 C 26.703125 -25.703125 28.699219 -23.707031 30.945312 -23.707031 L 46.167969 -23.707031 C 48.414062 -23.707031 50.410156 -21.710938 50.410156 -19.464844 L 50.410156 -4.242188 C 50.410156 -1.996094 52.40625 0 54.652344 0 Z M 54.652344 0 "/></g></g></g><g fill="#e84b13" fill-opacity="1"><g transform="translate(1154.258365, 854.192594)"><g><path d="M 7.238281 -23.707031 L 22.460938 -23.707031 C 24.707031 -23.707031 26.703125 -21.710938 26.703125 -19.464844 L 26.703125 -4.242188 C 26.703125 -1.996094 28.699219 0 30.945312 0 L 93.828125 0 C 96.074219 0 98.070312 -1.996094 98.070312 -4.242188 L 98.070312 -90.835938 C 98.070312 -93.082031 96.074219 -95.078125 93.828125 -95.078125 L 78.609375 -95.078125 C 76.363281 -95.078125 74.363281 -97.074219 74.363281 -99.320312 L 74.363281 -114.542969 C 74.363281 -116.789062 72.367188 -118.785156 70.121094 -118.785156 L 7.238281 -118.785156 C 4.992188 -118.785156 2.996094 -116.789062 2.996094 -114.542969 L 2.996094 -99.320312 C 2.996094 -97.074219 4.992188 -95.078125 7.238281 -95.078125 L 70.121094 -95.078125 C 72.367188 -95.078125 74.363281 -93.082031 74.363281 -90.835938 L 74.363281 -75.613281 C 74.363281 -73.367188 72.367188 -71.371094 70.121094 -71.371094 L 7.238281 -71.371094 C 4.992188 -71.371094 2.996094 -69.375 2.996094 -67.128906 L 2.996094 -27.949219 C 2.996094 -25.703125 4.992188 -23.707031 7.238281 -23.707031 Z M 26.703125 -27.949219 L 26.703125 -43.171875 C 26.703125 -45.417969 28.699219 -47.414062 30.945312 -47.414062 L 70.121094 -47.414062 C 72.367188 -47.414062 74.363281 -45.417969 74.363281 -43.171875 L 74.363281 -27.949219 C 74.363281 -25.703125 72.367188 -23.707031 70.121094 -23.707031 L 30.945312 -23.707031 C 28.699219 -23.707031 26.703125 -25.703125 26.703125 -27.949219 Z M 26.703125 -27.949219 "/></g></g></g></svg>